<?xml version="1.0" encoding="utf-8"?>
<!-- Generator: Adobe Illustrator 19.0.0, SVG Export Plug-In . SVG Version: 6.00 Build 0)  -->
<svg version="1.1" id="Layer_1" xmlns="http://www.w3.org/2000/svg" xmlns:xlink="http://www.w3.org/1999/xlink" x="0px" y="0px"
	 viewBox="0 0 310 315" enable-background="new 0 0 310 315" xml:space="preserve">
<g id="XMLID_10_">
	<g id="XMLID_62_">
		<g id="XMLID_18_">
			<path id="XMLID_40_" fill="#662D91" d="M174.5,163.4l9.7-9.7c2.9-2.9,2.9-7.6,0-10.5l0,0c-2.9-2.9-7.6-2.9-10.5,0l-9.7,9.7
				c-2.9,2.9-2.9,7.6,0,10.5l0,0C166.9,166.3,171.6,166.3,174.5,163.4z"/>
			<path id="XMLID_20_" fill="#7F3F98" d="M168.8,160.9l9.7-9.7c2.9-2.9,2.9-7.6,0-10.5v0c-2.9-2.9-7.6-2.9-10.5,0l-9.7,9.7
				c-2.9,2.9-2.9,7.6,0,10.5h0C161.2,163.8,165.9,163.8,168.8,160.9z"/>
			<path id="XMLID_38_" fill="#662D91" d="M204.7,160.6l35.9-35.9c10.7-10.7,10.7-28.1,0-38.8l0,0c-10.7-10.7-28.1-10.7-38.8,0
				l-35.9,35.9c-10.7,10.7-10.7,28.1,0,38.8l0,0C176.6,171.2,194,171.2,204.7,160.6z"/>
			<g id="XMLID_3_">
				<path id="XMLID_56_" fill="#7F3F98" d="M163.3,119.7l35.9-35.9c10.7-10.7,28.1-10.7,38.8,0l0,0c10.7,10.7,10.7,28.1,0,38.8
					l-27.5,27.5l-38.8-38.8l-6.6,6.6l38.8,38.8l-1.9,1.9c-10.7,10.7-28.1,10.7-38.8,0l0,0C152.6,147.9,152.6,130.4,163.3,119.7z"/>
				
					<rect id="XMLID_57_" x="166.6" y="113.5" transform="matrix(-0.7071 0.7071 -0.7071 -0.7071 375.3934 79.3749)" fill="#0094BB" width="9.3" height="7.9"/>
			</g>
			
				<rect id="XMLID_59_" x="188.4" y="119.2" transform="matrix(0.7071 -0.7071 0.7071 0.7071 -41.9129 177.3031)" fill="#0094BB" width="9.3" height="40"/>
			<path id="XMLID_61_" opacity="0.2" fill="#FFFFFF" d="M166.2,128.1l4.6-4.6l4.9,4.9L171,133c-1.3,1.3-3.5,1.3-4.9,0
				C164.8,131.7,164.8,129.5,166.2,128.1z"/>
			<path id="XMLID_63_" opacity="0.2" fill="#FFFFFF" d="M160.2,134.1c1.3-1.3,3.5-1.3,4.9,0c1.3,1.3,1.3,3.5,0,4.9v0
				c-1.3,1.3-3.5,1.3-4.9,0v0C158.8,137.6,158.8,135.4,160.2,134.1z"/>
		</g>
		<polyline id="XMLID_11_" fill="#0094BB" points="177.3,117 182.2,121.8 175.6,128.4 170.8,123.5 		"/>
	</g>
	<path id="XMLID_2_" fill="#EE927E" d="M214.9,197.8l35.6-35.6c6.1-6.1,6.1-16.2,0-22.3l0,0c-6.1-6.1-16.2-6.1-22.3,0l-35.6,35.6
		c-6.1,6.1-6.1,16.2,0,22.3l0,0C198.7,203.9,208.8,203.9,214.9,197.8z"/>
	<path id="XMLID_13_" fill="#F6C09C" d="M275.8,133.6l15.8-15.8c4.7-4.7,4.7-12.4,0-17.1l0,0c-4.7-4.7-12.4-4.7-17.1,0l-15.8,15.8
		c-4.7,4.7-4.7,12.4,0,17.1l0,0C263.4,138.4,271.1,138.4,275.8,133.6z"/>
	<g id="XMLID_19_">
		<path id="XMLID_66_" fill="#0094BB" d="M275.4,139.4h-88.8c-1.4-2.1-2.6-4.3-3.7-6.5h96.3C278,135.2,276.8,137.4,275.4,139.4z"/>
		<path id="XMLID_68_" fill="#025E72" d="M280.2,130.6c-0.3,0.8-0.7,1.5-1,2.3h-96.3c-0.4-0.8-0.7-1.5-1-2.3H280.2z"/>
	</g>
	<g id="XMLID_43_">
		<path id="XMLID_45_" fill="#7F3F98" d="M285.7,111.9l11.8,11.8c1.7,1.7,4.5,1.7,6.1,0v0c1.7-1.7,1.7-4.5,0-6.1l-11.8-11.8
			c-1.7-1.7-4.5-1.7-6.1,0l0,0C284,107.4,284,110.2,285.7,111.9z"/>
		<g id="XMLID_46_">
			
				<path id="XMLID_47_" fill="#8DC63F" stroke="#8DC63F" stroke-width="2.4299" stroke-linecap="round" stroke-linejoin="round" stroke-miterlimit="10" d="
				M281.4,83.4c3.4,3.4,2.1,10.2-2.8,15.2c-5,5-11.8,6.2-15.2,2.8l-95-95c-0.6-0.6-1.4-1.2-2-2.1l35.9,0L281.4,83.4z"/>
		</g>
		<g id="XMLID_50_" opacity="0.28">
			<path id="XMLID_49_" fill="#002334" d="M182.1,15.5l25.6,25.6c1,1,2.7,1,3.7,0v0c1-1,1-2.7,0-3.7l-25.6-25.6c-1-1-2.7-1-3.7,0v0
				C181.1,12.8,181.1,14.5,182.1,15.5z"/>
		</g>
	</g>
	<circle id="XMLID_44_" fill="#F6C09C" cx="282.8" cy="105.9" r="9.4"/>
	<path id="XMLID_55_" fill="#C52C54" d="M231,163.2c-18.5,0-34.8-9.5-44.4-23.8h88.8C265.9,153.8,249.5,163.2,231,163.2z"/>
	<path id="XMLID_58_" fill="#C52C54" d="M177.7,109.9c0-29.5,23.9-53.3,53.3-53.3c29.5,0,53.3,23.9,53.3,53.3
		c0,7.4-1.5,14.4-4.2,20.7h-98.3C179.1,124.3,177.7,117.2,177.7,109.9z"/>
	<path id="XMLID_60_" fill="#FFD883" d="M239,139.4h7.4c2,0,3.6-1.6,3.6-3.6v-1.6c0-2-1.6-3.6-3.6-3.6H239c-2,0-3.6,1.6-3.6,3.6v1.6
		C235.4,137.8,237.1,139.4,239,139.4z"/>
	<path id="XMLID_52_" opacity="0.2" d="M189.4,139.9l15.8-15.8c4.7-4.7,4.7-12.4,0-17.1l0,0c-4.7-4.7-12.4-4.7-17.1,0l-15.8,15.8
		c-4.7,4.7-4.7,12.4,0,17.1l0,0C176.9,144.6,184.7,144.6,189.4,139.9z"/>
	<g id="XMLID_51_" opacity="0.2">
		<path id="XMLID_53_" d="M226.1,191.9l29.8-29.8c6.1-6.1,6.1-16.2,0-22.3l0,0c-6.1-6.1-16.2-6.1-22.3,0l-29.8,29.8
			c-6.1,6.1-6.1,16.2,0,22.3l0,0C209.9,198,219.9,198,226.1,191.9z"/>
	</g>
	<g id="XMLID_48_">
		<path id="XMLID_5_" fill="#F6C09C" d="M228.7,190.9l29.8-29.8c6.1-6.1,6.1-16.2,0-22.3l0,0c-6.1-6.1-16.2-6.1-22.3,0l-29.8,29.8
			c-6.1,6.1-6.1,16.2,0,22.3l0,0C212.5,197,222.5,197,228.7,190.9z"/>
		<path id="XMLID_4_" fill="#F6C09C" d="M205.2,165.7h42.2c8.7,0,15.8-7.1,15.8-15.8v0c0-8.7-7.1-15.8-15.8-15.8h-42.2
			c-8.7,0-15.8,7.1-15.8,15.8v0C189.4,158.6,196.5,165.7,205.2,165.7z"/>
	</g>
	<path id="XMLID_12_" fill="#F6C09C" d="M190,137.9l15.8-15.8c4.7-4.7,4.7-12.4,0-17.1l0,0c-4.7-4.7-12.4-4.7-17.1,0l-15.8,15.8
		c-4.7,4.7-4.7,12.4,0,17.1l0,0C177.6,142.6,185.3,142.6,190,137.9z"/>
	<path id="XMLID_6_" fill="#0F133A" d="M219.8,107.9h42.9c5,0,9.1-4.1,9.1-9.1v0c0-5-4.1-9.1-9.1-9.1h-42.9c-5,0-9.1,4.1-9.1,9.1v0
		C210.7,103.8,214.8,107.9,219.8,107.9z"/>
	<circle id="XMLID_7_" fill="#FFFFFF" cx="260.8" cy="98.9" r="3.8"/>
	<circle id="XMLID_9_" fill="#FFFFFF" cx="223.6" cy="98.9" r="3.8"/>
	<g id="XMLID_8_">
		<path id="XMLID_14_" fill="#0094BB" d="M282.8,97.2H179.2c1.1-4.4,2.7-8.5,4.8-12.4H278C280.1,88.6,281.7,92.8,282.8,97.2z"/>
		<path id="XMLID_16_" fill="#C52C54" d="M231,56.5c20.4,0,38.1,11.4,47,28.2H184C193,68,210.6,56.5,231,56.5z"/>
	</g>
	<g id="XMLID_1_">
		<path id="XMLID_15_" fill="#00BFDF" d="M218.2,94.4h46.9c1.9,0,3.4-1.5,3.4-3.4l0,0c0-1.9-1.5-3.4-3.4-3.4h-46.9
			c-1.9,0-3.4,1.5-3.4,3.4l0,0C214.8,92.8,216.3,94.4,218.2,94.4z"/>
	</g>
	<g id="XMLID_54_">
		<path id="XMLID_25_" fill="#0094BB" d="M56.3,298.7l81.3-81.3c3-3,3-7.9,0-10.8l0,0c-3-3-7.9-3-10.8,0l-81.3,81.3
			c-3,3-3,7.9,0,10.8l0,0C48.4,301.6,53.3,301.6,56.3,298.7z"/>
		<path id="XMLID_29_" fill="#0094BB" d="M150.2,204.7l6.7-6.7c3-3,3-7.9,0-10.8l0,0c-3-3-7.9-3-10.8,0l-6.7,6.7c-3,3-3,7.9,0,10.8
			l0,0C142.4,207.7,147.2,207.7,150.2,204.7z"/>
		<path id="XMLID_27_" fill="#0094BB" d="M46,252.6l75.7-75.7c3-3,3-7.9,0-10.8l0,0c-3-3-7.9-3-10.8,0l-75.7,75.7c-3,3-3,7.9,0,10.8
			h0C38.1,255.6,43,255.6,46,252.6z"/>
		<path id="XMLID_26_" fill="#0094BB" d="M73.7,257.1l78.5-78.5c4.1-4.1,4.1-10.9,0-15.1l0,0c-4.1-4.1-10.9-4.1-15.1,0L58.6,242
			c-4.1,4.1-4.1,10.9,0,15.1l0,0C62.8,261.3,69.6,261.3,73.7,257.1z"/>
		<path id="XMLID_28_" fill="#0094BB" d="M35.2,295.9l22.3-22.3c4.1-4.1,4.1-10.9,0-15.1l0,0c-4.1-4.1-10.9-4.1-15.1,0l-22.3,22.3
			c-4.1,4.1-4.1,10.9,0,15.1l0,0C24.3,300.1,31.1,300.1,35.2,295.9z"/>
		<path id="XMLID_24_" opacity="0.41" fill="#FFFFFF" d="M70.3,251.8l77.1-77.1c2-2,2-5.3,0-7.3h0c-2-2-5.3-2-7.3,0L63,244.6
			c-2,2-2,5.3,0,7.3h0C65,253.8,68.3,253.8,70.3,251.8z"/>
		<path id="XMLID_33_" opacity="0.41" fill="#FFFFFF" d="M30.9,291.2l22.7-22.7c2-2,2-5.3,0-7.3l0,0c-2-2-5.3-2-7.3,0l-22.7,22.7
			c-2,2-2,5.3,0,7.3h0C25.6,293.2,28.9,293.2,30.9,291.2z"/>
		<path id="XMLID_30_" opacity="0.41" fill="#FFFFFF" d="M48.6,243.7l69-69c1.3-1.3,1.3-3.3,0-4.5h0c-1.3-1.3-3.3-1.3-4.5,0l-69,69
			c-1.3,1.3-1.3,3.3,0,4.5h0C45.3,245,47.3,245,48.6,243.7z"/>
		<path id="XMLID_31_" opacity="0.41" fill="#FFFFFF" d="M66.1,283l69-69c1.3-1.3,1.3-3.3,0-4.5l0,0c-1.3-1.3-3.3-1.3-4.5,0l-69,69
			c-1.3,1.3-1.3,3.3,0,4.5h0C62.8,284.3,64.9,284.3,66.1,283z"/>
		<path id="XMLID_32_" opacity="0.41" fill="#FFFFFF" d="M147.1,202l7.7-7.7c1.3-1.3,1.3-3.3,0-4.5l0,0c-1.3-1.3-3.3-1.3-4.5,0
			l-7.7,7.7c-1.3,1.3-1.3,3.3,0,4.5l0,0C143.8,203.2,145.9,203.2,147.1,202z"/>
		<path id="XMLID_21_" fill="#0094BB" d="M31.7,265.1L31.7,265.1c2.7-2.7,2.7-7.1,0-9.8l0,0c-2.7-2.7-7.1-2.7-9.8,0l0,0
			c-2.7,2.7-2.7,7.1,0,9.8l0,0C24.6,267.8,29,267.8,31.7,265.1z"/>
		<path id="XMLID_35_" fill="#0094BB" d="M16.9,308.6L16.9,308.6c2.7-2.7,2.7-7.1,0-9.8h0c-2.7-2.7-7.1-2.7-9.8,0h0
			c-2.7,2.7-2.7,7.1,0,9.8h0C9.8,311.3,14.2,311.3,16.9,308.6z"/>
		<path id="XMLID_34_" opacity="0.41" fill="#FFFFFF" d="M29.8,263.2L29.8,263.2c1.6-1.6,1.6-4.3,0-5.9h0c-1.6-1.6-4.3-1.6-5.9,0h0
			c-1.6,1.6-1.6,4.3,0,5.9h0C25.5,264.8,28.2,264.8,29.8,263.2z"/>
		<path id="XMLID_37_" opacity="0.41" fill="#FFFFFF" d="M15,306.7L15,306.7c1.6-1.6,1.6-4.3,0-5.9h0c-1.6-1.6-4.3-1.6-5.9,0h0
			c-1.6,1.6-1.6,4.3,0,5.9l0,0C10.7,308.3,13.4,308.3,15,306.7z"/>
	</g>
	<g id="XMLID_39_">
		<path id="XMLID_41_" fill="#F15A29" d="M175.9,94.4l4.9-2.6c0.7-0.4,1-1.3,0.6-2v0c-0.4-0.7-1.3-1-2-0.6l-4.9,2.6
			c-0.7,0.4-1,1.3-0.6,2l0,0C174.3,94.5,175.2,94.8,175.9,94.4z"/>
		<path id="XMLID_42_" fill="#F15A29" d="M181.4,89.7l-2.6-4.9c-0.4-0.7-1.3-1-2-0.6l0,0c-0.7,0.4-1,1.3-0.6,2l2.6,4.9
			c0.4,0.7,1.3,1,2,0.6l0,0C181.5,91.3,181.8,90.4,181.4,89.7z"/>
	</g>
	<g id="XMLID_65_">
		<path id="XMLID_67_" fill="#002334" d="M221,116.8c0.2-1.6,0.7-3,1.5-4.3l17.3,10.3c-1.7,3.1-5,5.1-8.8,5.1
			c-1.1,0-2.3-0.2-3.3-0.6c0.3-0.8,0.5-1.7,0.5-2.6C228.2,120.6,225.1,117.2,221,116.8z"/>
		<path id="XMLID_72_" fill="#EE2A7B" d="M221,116.8c4.1,0.4,7.2,3.9,7.2,8c0,0.9-0.2,1.8-0.5,2.6c-4-1.4-6.8-5.1-6.8-9.6
			C220.9,117.5,221,117.1,221,116.8z"/>
		<path id="XMLID_74_" fill="#FFFFFF" d="M225.1,109.7l15.9,9.5c-0.2,1.3-0.6,2.5-1.2,3.6l-17.3-10.3
			C223.2,111.4,224.1,110.5,225.1,109.7z"/>
	</g>
</g>
</svg>
